M48
; DRILL file {KiCad (6.0.5)} date Fri Jul  8 10:28:12 2022
; FORMAT={-:-/ absolute / inch / decimal}
; #@! TF.CreationDate,2022-07-08T10:28:12+08:00
; #@! TF.GenerationSoftware,Kicad,Pcbnew,(6.0.5)
; #@! TF.FileFunction,Plated,1,2,PTH
FMAT,2
INCH
; #@! TA.AperFunction,Plated,PTH,ViaDrill
T1C0.0157
; #@! TA.AperFunction,Plated,PTH,ComponentDrill
T2C0.0236
; #@! TA.AperFunction,Plated,PTH,ComponentDrill
T3C0.0315
%
G90
G05
T1
X5.0886Y-3.7067
X5.0984Y-3.9819
X5.2673Y-3.5528
X5.3067Y-3.7429
X5.3085Y-3.6894
X5.3496Y-3.5366
X5.5866Y-3.3811
X5.6291Y-3.3421
X5.6815Y-3.785
X5.6827Y-3.3421
X5.7374Y-3.3421
X5.8937Y-3.3823
X5.911Y-3.7394
X5.9579Y-3.602
X6.0492Y-4.028
X6.05Y-3.6815
X6.0858Y-3.8122
X6.1059Y-3.4614
X6.1374Y-3.9984
X6.1429Y-3.4602
X6.2618Y-3.3953
X6.3366Y-3.5
X6.337Y-3.5665
X6.537Y-3.3803
X6.6654Y-3.3791
X6.6748Y-4.0587
T3
X5.7992Y-4.0177
X5.9173Y-4.0177
T2
G00X5.0409Y-3.5559
M15
G01X5.0173Y-3.5559
M16
G05
G00X5.0409Y-3.8961
M15
G01X5.0173Y-3.8961
M16
G05
G00X5.2154Y-3.5559
M15
G01X5.172Y-3.5559
M16
G05
G00X5.2154Y-3.8961
M15
G01X5.172Y-3.8961
M16
G05
T0
M30
