%TF.GenerationSoftware,KiCad,Pcbnew,(6.0.5)*%
%TF.CreationDate,2022-07-08T10:28:12+08:00*%
%TF.ProjectId,dap_ch549f,6461705f-6368-4353-9439-662e6b696361,rev?*%
%TF.SameCoordinates,Original*%
%TF.FileFunction,Soldermask,Top*%
%TF.FilePolarity,Negative*%
%FSLAX46Y46*%
G04 Gerber Fmt 4.6, Leading zero omitted, Abs format (unit mm)*
G04 Created by KiCad (PCBNEW (6.0.5)) date 2022-07-08 10:28:12*
%MOMM*%
%LPD*%
G01*
G04 APERTURE LIST*
G04 Aperture macros list*
%AMRoundRect*
0 Rectangle with rounded corners*
0 $1 Rounding radius*
0 $2 $3 $4 $5 $6 $7 $8 $9 X,Y pos of 4 corners*
0 Add a 4 corners polygon primitive as box body*
4,1,4,$2,$3,$4,$5,$6,$7,$8,$9,$2,$3,0*
0 Add four circle primitives for the rounded corners*
1,1,$1+$1,$2,$3*
1,1,$1+$1,$4,$5*
1,1,$1+$1,$6,$7*
1,1,$1+$1,$8,$9*
0 Add four rect primitives between the rounded corners*
20,1,$1+$1,$2,$3,$4,$5,0*
20,1,$1+$1,$4,$5,$6,$7,0*
20,1,$1+$1,$6,$7,$8,$9,0*
20,1,$1+$1,$8,$9,$2,$3,0*%
%AMOutline5P*
0 Free polygon, 5 corners , with rotation*
0 The origin of the aperture is its center*
0 number of corners: always 5*
0 $1 to $10 corner X, Y*
0 $11 Rotation angle, in degrees counterclockwise*
0 create outline with 5 corners*
4,1,5,$1,$2,$3,$4,$5,$6,$7,$8,$9,$10,$1,$2,$11*%
%AMOutline6P*
0 Free polygon, 6 corners , with rotation*
0 The origin of the aperture is its center*
0 number of corners: always 6*
0 $1 to $12 corner X, Y*
0 $13 Rotation angle, in degrees counterclockwise*
0 create outline with 6 corners*
4,1,6,$1,$2,$3,$4,$5,$6,$7,$8,$9,$10,$11,$12,$1,$2,$13*%
%AMOutline7P*
0 Free polygon, 7 corners , with rotation*
0 The origin of the aperture is its center*
0 number of corners: always 7*
0 $1 to $14 corner X, Y*
0 $15 Rotation angle, in degrees counterclockwise*
0 create outline with 7 corners*
4,1,7,$1,$2,$3,$4,$5,$6,$7,$8,$9,$10,$11,$12,$13,$14,$1,$2,$15*%
%AMOutline8P*
0 Free polygon, 8 corners , with rotation*
0 The origin of the aperture is its center*
0 number of corners: always 8*
0 $1 to $16 corner X, Y*
0 $17 Rotation angle, in degrees counterclockwise*
0 create outline with 8 corners*
4,1,8,$1,$2,$3,$4,$5,$6,$7,$8,$9,$10,$11,$12,$13,$14,$15,$16,$1,$2,$17*%
G04 Aperture macros list end*
%ADD10RoundRect,0.200000X-0.200000X-0.275000X0.200000X-0.275000X0.200000X0.275000X-0.200000X0.275000X0*%
%ADD11RoundRect,0.218750X0.218750X0.256250X-0.218750X0.256250X-0.218750X-0.256250X0.218750X-0.256250X0*%
%ADD12Outline8P,-0.381000X0.190500X-0.190500X0.381000X0.190500X0.381000X0.381000X0.190500X0.381000X-0.190500X0.190500X-0.381000X-0.190500X-0.381000X-0.381000X-0.190500X180.000000*%
%ADD13O,3.999992X1.199998*%
%ADD14RoundRect,0.200000X0.200000X0.275000X-0.200000X0.275000X-0.200000X-0.275000X0.200000X-0.275000X0*%
%ADD15RoundRect,0.150000X-0.150000X0.587500X-0.150000X-0.587500X0.150000X-0.587500X0.150000X0.587500X0*%
%ADD16RoundRect,0.225000X0.250000X-0.225000X0.250000X0.225000X-0.250000X0.225000X-0.250000X-0.225000X0*%
%ADD17RoundRect,0.200000X-0.275000X0.200000X-0.275000X-0.200000X0.275000X-0.200000X0.275000X0.200000X0*%
%ADD18RoundRect,0.150000X0.512500X0.150000X-0.512500X0.150000X-0.512500X-0.150000X0.512500X-0.150000X0*%
%ADD19RoundRect,0.218750X-0.218750X-0.256250X0.218750X-0.256250X0.218750X0.256250X-0.218750X0.256250X0*%
%ADD20Outline8P,-0.381000X0.190500X-0.190500X0.381000X0.190500X0.381000X0.381000X0.190500X0.381000X-0.190500X0.190500X-0.381000X-0.190500X-0.381000X-0.381000X-0.190500X0.000000*%
%ADD21C,0.800000*%
%ADD22R,1.400000X0.800000*%
%ADD23R,0.600000X1.500000*%
%ADD24R,1.397000X1.016000*%
%ADD25RoundRect,0.062500X0.350000X0.062500X-0.350000X0.062500X-0.350000X-0.062500X0.350000X-0.062500X0*%
%ADD26RoundRect,0.062500X0.062500X0.350000X-0.062500X0.350000X-0.062500X-0.350000X0.062500X-0.350000X0*%
%ADD27R,2.400000X2.400000*%
%ADD28C,0.650000*%
%ADD29R,1.450000X0.600000*%
%ADD30R,1.450000X0.300000*%
%ADD31O,2.100000X1.000000*%
%ADD32O,1.600000X1.000000*%
%ADD33R,3.600000X1.500000*%
%ADD34RoundRect,0.225000X0.225000X0.250000X-0.225000X0.250000X-0.225000X-0.250000X0.225000X-0.250000X0*%
%ADD35R,1.500000X1.500000*%
%ADD36RoundRect,0.200000X0.275000X-0.200000X0.275000X0.200000X-0.275000X0.200000X-0.275000X-0.200000X0*%
G04 APERTURE END LIST*
D10*
%TO.C,R7*%
X156810000Y-93380000D03*
X158460000Y-93380000D03*
%TD*%
D11*
%TO.C,LED1*%
X150887500Y-86425000D03*
D12*
X149312500Y-86425000D03*
%TD*%
D13*
%TO.C,P1*%
X168350000Y-89560000D03*
X168350000Y-92100000D03*
X168350000Y-94640000D03*
X168350000Y-97180000D03*
X168350000Y-99720000D03*
%TD*%
D10*
%TO.C,R12*%
X152375000Y-86405000D03*
X154025000Y-86405000D03*
%TD*%
D14*
%TO.C,R16*%
X159800000Y-90560000D03*
X158150000Y-90560000D03*
%TD*%
D15*
%TO.C,Q1*%
X132010000Y-86302500D03*
X130110000Y-86302500D03*
X131060000Y-88177500D03*
%TD*%
D16*
%TO.C,C6*%
X149362500Y-89545000D03*
X149362500Y-87995000D03*
%TD*%
D17*
%TO.C,R1*%
X134910000Y-85945000D03*
X134910000Y-87595000D03*
%TD*%
%TO.C,R3*%
X138052500Y-89035000D03*
X138052500Y-90685000D03*
%TD*%
D10*
%TO.C,R2*%
X156790000Y-94920000D03*
X158440000Y-94920000D03*
%TD*%
D16*
%TO.C,C8*%
X152432500Y-89545000D03*
X152432500Y-87995000D03*
%TD*%
D18*
%TO.C,U2*%
X142790000Y-88690000D03*
X142790000Y-87740000D03*
X142790000Y-86790000D03*
X140515000Y-86790000D03*
X140515000Y-88690000D03*
%TD*%
D19*
%TO.C,LED3*%
X159992833Y-93360839D03*
D20*
X161567833Y-93360839D03*
%TD*%
D14*
%TO.C,R15*%
X159800000Y-88940000D03*
X158150000Y-88940000D03*
%TD*%
D21*
%TO.C,SW2*%
X147300003Y-102050000D03*
X150300002Y-102050000D03*
D22*
X145150002Y-103300000D03*
X152450003Y-103300000D03*
X152450003Y-100800000D03*
X145150002Y-100800000D03*
D23*
X146550007Y-100053999D03*
X149550001Y-100053999D03*
X151050003Y-100053997D03*
%TD*%
D16*
%TO.C,C4*%
X136502500Y-87575000D03*
X136502500Y-86025000D03*
%TD*%
D14*
%TO.C,R6*%
X142687500Y-92400000D03*
X141037500Y-92400000D03*
%TD*%
%TO.C,R5*%
X145757500Y-92400000D03*
X144107500Y-92400000D03*
%TD*%
D17*
%TO.C,R11*%
X136370000Y-96685000D03*
X136370000Y-98335000D03*
%TD*%
D24*
%TO.C,FU1*%
X128310000Y-88383000D03*
X128310000Y-86097000D03*
%TD*%
D16*
%TO.C,C7*%
X150902500Y-89545000D03*
X150902500Y-87995000D03*
%TD*%
D10*
%TO.C,R13*%
X158150000Y-97490000D03*
X159800000Y-97490000D03*
%TD*%
D19*
%TO.C,LED2*%
X159985000Y-94920000D03*
D20*
X161560000Y-94920000D03*
%TD*%
D10*
%TO.C,R8*%
X137915000Y-95595000D03*
X139565000Y-95595000D03*
%TD*%
%TO.C,R14*%
X158150000Y-99130000D03*
X159800000Y-99130000D03*
%TD*%
D25*
%TO.C,U1*%
X152067500Y-96170000D03*
X152067500Y-95770000D03*
X152067500Y-95370000D03*
X152067500Y-94970000D03*
X152067500Y-94570000D03*
X152067500Y-94170000D03*
X152067500Y-93770000D03*
D26*
X151330000Y-93032500D03*
X150930000Y-93032500D03*
X150530000Y-93032500D03*
X150130000Y-93032500D03*
X149730000Y-93032500D03*
X149330000Y-93032500D03*
X148930000Y-93032500D03*
D25*
X148192500Y-93770000D03*
X148192500Y-94170000D03*
X148192500Y-94570000D03*
X148192500Y-94970000D03*
X148192500Y-95370000D03*
X148192500Y-95770000D03*
X148192500Y-96170000D03*
D26*
X148930000Y-96907500D03*
X149330000Y-96907500D03*
X149730000Y-96907500D03*
X150130000Y-96907500D03*
X150530000Y-96907500D03*
X150930000Y-96907500D03*
X151330000Y-96907500D03*
D27*
X150130000Y-94970000D03*
%TD*%
D28*
%TO.C,J1*%
X131390000Y-91750000D03*
X131390000Y-97530000D03*
D29*
X132835000Y-91390000D03*
X132835000Y-92190000D03*
D30*
X132835000Y-93390000D03*
X132835000Y-94390000D03*
X132835000Y-94890000D03*
X132835000Y-95890000D03*
D29*
X132835000Y-97090000D03*
X132835000Y-97890000D03*
X132835000Y-97890000D03*
X132835000Y-97090000D03*
D30*
X132835000Y-96390000D03*
X132835000Y-95390000D03*
X132835000Y-93890000D03*
X132835000Y-92890000D03*
D29*
X132835000Y-92190000D03*
X132835000Y-91390000D03*
D31*
X131920000Y-98960000D03*
X131920000Y-90320000D03*
D32*
X127740000Y-90320000D03*
X127740000Y-98960000D03*
%TD*%
D16*
%TO.C,C9*%
X153972500Y-89535000D03*
X153972500Y-87985000D03*
%TD*%
D10*
%TO.C,R4*%
X137947500Y-92400000D03*
X139597500Y-92400000D03*
%TD*%
%TO.C,R9*%
X137940000Y-93995000D03*
X139590000Y-93995000D03*
%TD*%
D33*
%TO.C,L1*%
X146192500Y-86375000D03*
X146192500Y-89425000D03*
%TD*%
D34*
%TO.C,C1*%
X145835000Y-98400000D03*
X144285000Y-98400000D03*
%TD*%
D35*
%TO.C,SW1*%
X135070000Y-102060000D03*
X142870000Y-102060000D03*
%TD*%
D16*
%TO.C,C5*%
X138052500Y-87575000D03*
X138052500Y-86025000D03*
%TD*%
D36*
%TO.C,R10*%
X136370000Y-93095000D03*
X136370000Y-91445000D03*
%TD*%
D34*
%TO.C,C2*%
X155635000Y-99720000D03*
X154085000Y-99720000D03*
%TD*%
M02*
